<svg width="32" height="32" viewBox="0 0 32 32" fill="none" xmlns="http://www.w3.org/2000/svg">
  <defs>
    <linearGradient id="gradient" x1="0%" y1="0%" x2="100%" y2="100%">
      <stop offset="0%" style="stop-color:#0ea5e9"/>
      <stop offset="100%" style="stop-color:#0284c7"/>
    </linearGradient>
  </defs>
  <rect width="32" height="32" rx="8" fill="url(#gradient)"/>
  <path d="M16 7C16.5523 7 17 7.44772 17 8V12H21C21.5523 12 22 12.4477 22 13C22 13.5523 21.5523 14 21 14H17V18C17 18.5523 16.5523 19 16 19C15.4477 19 15 18.5523 15 18V14H11C10.4477 14 10 13.5523 10 13C10 12.4477 10.4477 12 11 12H15V8C15 7.44772 15.4477 7 16 7Z" fill="white"/>
  <circle cx="16" cy="22" r="3" fill="white" fill-opacity="0.9"/>
</svg>
